<svg height="6014" width="720" xmlns="http://www.w3.org/2000/svg">
<rect height="6014" fill="#555" width="720"></rect>
<text fill="#7f7" font-family="Courier New" font-size="12" xml:space="preserve">
<tspan x="10" y="26">61 megabytes installed</tspan>
<tspan x="10" y="42"></tspan>
<tspan x="10" y="58">node_modules</tspan>
<tspan x="10" y="74">└─┬ ponte@0.0.16 </tspan>
<tspan x="10" y="90">  ├─┬ ascoltatori@2.0.1 </tspan>
<tspan x="10" y="106">  │ ├─┬ amqp@0.2.6 </tspan>
<tspan x="10" y="122">  │ │ └── lodash@4.17.4 </tspan>
<tspan x="10" y="138">  │ ├─┬ debug@2.6.4 </tspan>
<tspan x="10" y="154">  │ │ └── ms@0.7.3 </tspan>
<tspan x="10" y="170">  │ ├── eventemitter2@0.4.14 </tspan>
<tspan x="10" y="186">  │ ├─┬ hiredis@0.4.1 </tspan>
<tspan x="10" y="202">  │ │ ├── bindings@1.2.1 </tspan>
<tspan x="10" y="218">  │ │ └── nan@2.6.2 </tspan>
<tspan x="10" y="234">  │ ├─┬ kerberos@0.0.23 </tspan>
<tspan x="10" y="250">  │ │ └── nan@2.5.1 </tspan>
<tspan x="10" y="266">  │ ├─┬ mongodb@2.2.26 </tspan>
<tspan x="10" y="282">  │ │ ├── es6-promise@3.2.1 </tspan>
<tspan x="10" y="298">  │ │ └─┬ mongodb-core@2.1.10 </tspan>
<tspan x="10" y="314">  │ │   ├── bson@1.0.4 </tspan>
<tspan x="10" y="330">  │ │   └─┬ require_optional@1.0.0 </tspan>
<tspan x="10" y="346">  │ │     ├── resolve-from@2.0.0 </tspan>
<tspan x="10" y="362">  │ │     └── semver@5.3.0 </tspan>
<tspan x="10" y="378">  │ ├─┬ mqtt@1.14.1 </tspan>
<tspan x="10" y="394">  │ │ ├─┬ commist@1.0.0 </tspan>
<tspan x="10" y="410">  │ │ │ └── leven@1.0.2 </tspan>
<tspan x="10" y="426">  │ │ ├─┬ concat-stream@1.6.0 </tspan>
<tspan x="10" y="442">  │ │ │ └── typedarray@0.0.6 </tspan>
<tspan x="10" y="458">  │ │ ├─┬ end-of-stream@1.4.0 </tspan>
<tspan x="10" y="474">  │ │ │ └─┬ once@1.4.0 </tspan>
<tspan x="10" y="490">  │ │ │   └── wrappy@1.0.2 </tspan>
<tspan x="10" y="506">  │ │ ├─┬ help-me@1.1.0 </tspan>
<tspan x="10" y="522">  │ │ │ └─┬ glob-stream@6.1.0 </tspan>
<tspan x="10" y="538">  │ │ │   ├── extend@3.0.0 </tspan>
<tspan x="10" y="554">  │ │ │   ├─┬ glob@7.1.1 </tspan>
<tspan x="10" y="570">  │ │ │   │ └── fs.realpath@1.0.0 </tspan>
<tspan x="10" y="586">  │ │ │   ├─┬ glob-parent@3.1.0 </tspan>
<tspan x="10" y="602">  │ │ │   │ ├─┬ is-glob@3.1.0 </tspan>
<tspan x="10" y="618">  │ │ │   │ │ └── is-extglob@2.1.1 </tspan>
<tspan x="10" y="634">  │ │ │   │ └── path-dirname@1.0.2 </tspan>
<tspan x="10" y="650">  │ │ │   ├── is-negated-glob@1.0.0 </tspan>
<tspan x="10" y="666">  │ │ │   ├─┬ ordered-read-streams@1.0.0 </tspan>
<tspan x="10" y="682">  │ │ │   │ └── is-stream@1.1.0 </tspan>
<tspan x="10" y="698">  │ │ │   ├── pumpify@1.3.5 </tspan>
<tspan x="10" y="714">  │ │ │   ├── remove-trailing-separator@1.0.1 </tspan>
<tspan x="10" y="730">  │ │ │   ├─┬ to-absolute-glob@2.0.1 </tspan>
<tspan x="10" y="746">  │ │ │   │ ├─┬ extend-shallow@2.0.1 </tspan>
<tspan x="10" y="762">  │ │ │   │ │ └── is-extendable@0.1.1 </tspan>
<tspan x="10" y="778">  │ │ │   │ └─┬ is-absolute@0.2.6 </tspan>
<tspan x="10" y="794">  │ │ │   │   ├─┬ is-relative@0.2.1 </tspan>
<tspan x="10" y="810">  │ │ │   │   │ └─┬ is-unc-path@0.1.2 </tspan>
<tspan x="10" y="826">  │ │ │   │   │   └── unc-path-regex@0.1.2 </tspan>
<tspan x="10" y="842">  │ │ │   │   └── is-windows@0.2.0 </tspan>
<tspan x="10" y="858">  │ │ │   └─┬ unique-stream@2.2.1 </tspan>
<tspan x="10" y="874">  │ │ │     ├─┬ json-stable-stringify@1.0.1 </tspan>
<tspan x="10" y="890">  │ │ │     │ └── jsonify@0.0.0 </tspan>
<tspan x="10" y="906">  │ │ │     └── through2-filter@2.0.0 </tspan>
<tspan x="10" y="922">  │ │ ├── minimist@1.2.0 </tspan>
<tspan x="10" y="938">  │ │ ├─┬ mqtt-packet@3.4.8 </tspan>
<tspan x="10" y="954">  │ │ │ └─┬ bl@0.9.5 </tspan>
<tspan x="10" y="970">  │ │ │   └─┬ readable-stream@1.0.34 </tspan>
<tspan x="10" y="986">  │ │ │     ├── isarray@0.0.1 </tspan>
<tspan x="10" y="1002">  │ │ │     └── string_decoder@0.10.31 </tspan>
<tspan x="10" y="1018">  │ │ ├── pump@1.0.2 </tspan>
<tspan x="10" y="1034">  │ │ ├─┬ readable-stream@1.0.34 </tspan>
<tspan x="10" y="1050">  │ │ │ ├── isarray@0.0.1 </tspan>
<tspan x="10" y="1066">  │ │ │ └── string_decoder@0.10.31 </tspan>
<tspan x="10" y="1082">  │ │ ├── reinterval@1.1.0 </tspan>
<tspan x="10" y="1098">  │ │ ├── split2@2.1.1 </tspan>
<tspan x="10" y="1114">  │ │ └─┬ websocket-stream@3.3.3 </tspan>
<tspan x="10" y="1130">  │ │   └── ws@1.1.4 </tspan>
<tspan x="10" y="1146">  │ ├── node-uuid@1.4.8 </tspan>
<tspan x="10" y="1162">  │ ├── qlobber@0.5.3 </tspan>
<tspan x="10" y="1178">  │ ├─┬ qlobber-fsq@0.4.1 </tspan>
<tspan x="10" y="1194">  │ │ └── fs-ext@0.5.0 </tspan>
<tspan x="10" y="1210">  │ └─┬ redis@2.7.1 </tspan>
<tspan x="10" y="1226">  │   ├── double-ended-queue@2.1.0-0 </tspan>
<tspan x="10" y="1242">  │   ├── redis-commands@1.3.1 </tspan>
<tspan x="10" y="1258">  │   └── redis-parser@2.6.0 </tspan>
<tspan x="10" y="1274">  ├── async@1.5.2 </tspan>
<tspan x="10" y="1290">  ├─┬ bunyan@1.5.1 </tspan>
<tspan x="10" y="1306">  │ ├── dtrace-provider@0.6.0 </tspan>
<tspan x="10" y="1322">  │ ├─┬ mv@2.1.1 </tspan>
<tspan x="10" y="1338">  │ │ ├─┬ mkdirp@0.5.1 </tspan>
<tspan x="10" y="1354">  │ │ │ └── minimist@0.0.8 </tspan>
<tspan x="10" y="1370">  │ │ ├── ncp@2.0.0 </tspan>
<tspan x="10" y="1386">  │ │ └─┬ rimraf@2.4.5 </tspan>
<tspan x="10" y="1402">  │ │   └─┬ glob@6.0.4 </tspan>
<tspan x="10" y="1418">  │ │     ├── inflight@1.0.6 </tspan>
<tspan x="10" y="1434">  │ │     └── path-is-absolute@1.0.1 </tspan>
<tspan x="10" y="1450">  │ └── safe-json-stringify@1.0.4 </tspan>
<tspan x="10" y="1466">  ├─┬ callback-stream@1.1.0 </tspan>
<tspan x="10" y="1482">  │ ├── inherits@2.0.3 </tspan>
<tspan x="10" y="1498">  │ └─┬ readable-stream@2.2.7 </tspan>
<tspan x="10" y="1514">  │   ├── buffer-shims@1.0.0 </tspan>
<tspan x="10" y="1530">  │   ├── core-util-is@1.0.2 </tspan>
<tspan x="10" y="1546">  │   ├── isarray@1.0.0 </tspan>
<tspan x="10" y="1562">  │   ├── process-nextick-args@1.0.7 </tspan>
<tspan x="10" y="1578">  │   ├── string_decoder@1.0.0 </tspan>
<tspan x="10" y="1594">  │   └── util-deprecate@1.0.2 </tspan>
<tspan x="10" y="1610">  ├─┬ coap@0.13.1 </tspan>
<tspan x="10" y="1626">  │ ├── bl@1.0.3 </tspan>
<tspan x="10" y="1642">  │ ├── capitalize@1.0.0 </tspan>
<tspan x="10" y="1658">  │ ├── coap-packet@0.1.14 </tspan>
<tspan x="10" y="1674">  │ ├─┬ fastseries@1.7.2 </tspan>
<tspan x="10" y="1690">  │ │ └── reusify@1.0.1 </tspan>
<tspan x="10" y="1706">  │ ├─┬ lru-cache@4.0.2 </tspan>
<tspan x="10" y="1722">  │ │ ├── pseudomap@1.0.2 </tspan>
<tspan x="10" y="1738">  │ │ └── yallist@2.1.2 </tspan>
<tspan x="10" y="1754">  │ └─┬ readable-stream@2.0.6 </tspan>
<tspan x="10" y="1770">  │   └── string_decoder@0.10.31 </tspan>
<tspan x="10" y="1786">  ├─┬ commander@2.9.0 </tspan>
<tspan x="10" y="1802">  │ └── graceful-readlink@1.0.1 </tspan>
<tspan x="10" y="1818">  ├─┬ corsify@2.1.0 </tspan>
<tspan x="10" y="1834">  │ └─┬ http-methods@0.1.0 </tspan>
<tspan x="10" y="1850">  │   ├── body@0.1.0 </tspan>
<tspan x="10" y="1866">  │   └─┬ content-types@0.1.0 </tspan>
<tspan x="10" y="1882">  │     └─┬ iterators@0.1.0 </tspan>
<tspan x="10" y="1898">  │       └── ap@0.1.0 </tspan>
<tspan x="10" y="1914">  ├─┬ mosca@1.1.3 </tspan>
<tspan x="10" y="1930">  │ ├─┬ brfs@1.4.3 </tspan>
<tspan x="10" y="1946">  │ │ ├─┬ quote-stream@1.0.2 </tspan>
<tspan x="10" y="1962">  │ │ │ └── buffer-equal@0.0.1 </tspan>
<tspan x="10" y="1978">  │ │ ├─┬ resolve@1.3.3 </tspan>
<tspan x="10" y="1994">  │ │ │ └── path-parse@1.0.5 </tspan>
<tspan x="10" y="2010">  │ │ ├─┬ static-module@1.3.1 </tspan>
<tspan x="10" y="2026">  │ │ │ ├─┬ concat-stream@1.4.10 </tspan>
<tspan x="10" y="2042">  │ │ │ │ └── readable-stream@1.1.14 </tspan>
<tspan x="10" y="2058">  │ │ │ ├─┬ duplexer2@0.0.2 </tspan>
<tspan x="10" y="2074">  │ │ │ │ └─┬ readable-stream@1.1.14 </tspan>
<tspan x="10" y="2090">  │ │ │ │   ├── isarray@0.0.1 </tspan>
<tspan x="10" y="2106">  │ │ │ │   └── string_decoder@0.10.31 </tspan>
<tspan x="10" y="2122">  │ │ │ ├─┬ escodegen@1.3.3 </tspan>
<tspan x="10" y="2138">  │ │ │ │ ├── esprima@1.1.1 </tspan>
<tspan x="10" y="2154">  │ │ │ │ ├── estraverse@1.5.1 </tspan>
<tspan x="10" y="2170">  │ │ │ │ ├── esutils@1.0.0 </tspan>
<tspan x="10" y="2186">  │ │ │ │ └─┬ source-map@0.1.43 </tspan>
<tspan x="10" y="2202">  │ │ │ │   └── amdefine@1.0.1 </tspan>
<tspan x="10" y="2218">  │ │ │ ├─┬ falafel@1.2.0 </tspan>
<tspan x="10" y="2234">  │ │ │ │ ├── acorn@1.2.2 </tspan>
<tspan x="10" y="2250">  │ │ │ │ ├── foreach@2.0.5 </tspan>
<tspan x="10" y="2266">  │ │ │ │ ├── isarray@0.0.1 </tspan>
<tspan x="10" y="2282">  │ │ │ │ └── object-keys@1.0.11 </tspan>
<tspan x="10" y="2298">  │ │ │ ├─┬ has@1.0.1 </tspan>
<tspan x="10" y="2314">  │ │ │ │ └── function-bind@1.1.0 </tspan>
<tspan x="10" y="2330">  │ │ │ ├── object-inspect@0.4.0 </tspan>
<tspan x="10" y="2346">  │ │ │ ├─┬ quote-stream@0.0.0 </tspan>
<tspan x="10" y="2362">  │ │ │ │ └── minimist@0.0.8 </tspan>
<tspan x="10" y="2378">  │ │ │ ├─┬ readable-stream@1.0.34 </tspan>
<tspan x="10" y="2394">  │ │ │ │ ├── isarray@0.0.1 </tspan>
<tspan x="10" y="2410">  │ │ │ │ └── string_decoder@0.10.31 </tspan>
<tspan x="10" y="2426">  │ │ │ ├── shallow-copy@0.0.1 </tspan>
<tspan x="10" y="2442">  │ │ │ ├─┬ static-eval@0.2.4 </tspan>
<tspan x="10" y="2458">  │ │ │ │ └─┬ escodegen@0.0.28 </tspan>
<tspan x="10" y="2474">  │ │ │ │   ├── esprima@1.0.4 </tspan>
<tspan x="10" y="2490">  │ │ │ │   └── estraverse@1.3.2 </tspan>
<tspan x="10" y="2506">  │ │ │ └─┬ through2@0.4.2 </tspan>
<tspan x="10" y="2522">  │ │ │   └─┬ xtend@2.1.2 </tspan>
<tspan x="10" y="2538">  │ │ │     └── object-keys@0.4.0 </tspan>
<tspan x="10" y="2554">  │ │ └── through2@2.0.3 </tspan>
<tspan x="10" y="2570">  │ ├── deepcopy@0.3.3 </tspan>
<tspan x="10" y="2586">  │ ├── extend@2.0.1 </tspan>
<tspan x="10" y="2602">  │ ├── json-buffer@2.0.11 </tspan>
<tspan x="10" y="2618">  │ ├── jsonschema@1.1.1 </tspan>
<tspan x="10" y="2634">  │ ├─┬ level-sublevel@6.6.1 </tspan>
<tspan x="10" y="2650">  │ │ ├─┬ bytewise@1.1.0 </tspan>
<tspan x="10" y="2666">  │ │ │ ├─┬ bytewise-core@1.2.3 </tspan>
<tspan x="10" y="2682">  │ │ │ │ └── typewise-core@1.2.0 </tspan>
<tspan x="10" y="2698">  │ │ │ └── typewise@1.0.3 </tspan>
<tspan x="10" y="2714">  │ │ ├─┬ levelup@0.19.1 </tspan>
<tspan x="10" y="2730">  │ │ │ ├── bl@0.8.2 </tspan>
<tspan x="10" y="2746">  │ │ │ ├─┬ deferred-leveldown@0.2.0 </tspan>
<tspan x="10" y="2762">  │ │ │ │ └─┬ abstract-leveldown@0.12.4 </tspan>
<tspan x="10" y="2778">  │ │ │ │   └── xtend@3.0.0 </tspan>
<tspan x="10" y="2794">  │ │ │ ├── errno@0.1.4 </tspan>
<tspan x="10" y="2810">  │ │ │ ├── prr@0.0.0 </tspan>
<tspan x="10" y="2826">  │ │ │ ├─┬ readable-stream@1.0.34 </tspan>
<tspan x="10" y="2842">  │ │ │ │ ├── isarray@0.0.1 </tspan>
<tspan x="10" y="2858">  │ │ │ │ └── string_decoder@0.10.31 </tspan>
<tspan x="10" y="2874">  │ │ │ ├── semver@5.1.1 </tspan>
<tspan x="10" y="2890">  │ │ │ └── xtend@3.0.0 </tspan>
<tspan x="10" y="2906">  │ │ ├── ltgt@2.1.3 </tspan>
<tspan x="10" y="2922">  │ │ ├─┬ pull-level@2.0.3 </tspan>
<tspan x="10" y="2938">  │ │ │ ├── level-post@1.0.5 </tspan>
<tspan x="10" y="2954">  │ │ │ ├── pull-cat@1.1.11 </tspan>
<tspan x="10" y="2970">  │ │ │ ├── pull-live@1.0.1 </tspan>
<tspan x="10" y="2986">  │ │ │ ├── pull-pushable@2.0.1 </tspan>
<tspan x="10" y="3002">  │ │ │ ├─┬ pull-window@2.1.4 </tspan>
<tspan x="10" y="3018">  │ │ │ │ └── looper@2.0.0 </tspan>
<tspan x="10" y="3034">  │ │ │ └─┬ stream-to-pull-stream@1.7.2 </tspan>
<tspan x="10" y="3050">  │ │ │   └── looper@3.0.0 </tspan>
<tspan x="10" y="3066">  │ │ ├── pull-stream@3.5.0 </tspan>
<tspan x="10" y="3082">  │ │ └── typewiselite@1.0.0 </tspan>
<tspan x="10" y="3098">  │ ├─┬ leveldown@1.4.6 </tspan>
<tspan x="10" y="3114">  │ │ ├── abstract-leveldown@2.4.1 </tspan>
<tspan x="10" y="3130">  │ │ ├── fast-future@1.0.2 </tspan>
<tspan x="10" y="3146">  │ │ ├── nan@2.3.5 </tspan>
<tspan x="10" y="3162">  │ │ └─┬ prebuild@4.5.0 </tspan>
<tspan x="10" y="3178">  │ │   ├─┬ execspawn@1.0.1 </tspan>
<tspan x="10" y="3194">  │ │   │ └── util-extend@1.0.3 </tspan>
<tspan x="10" y="3210">  │ │   ├── expand-template@1.0.3 </tspan>
<tspan x="10" y="3226">  │ │   ├─┬ ghreleases@1.0.5 </tspan>
<tspan x="10" y="3242">  │ │   │ ├── after@0.8.2 </tspan>
<tspan x="10" y="3258">  │ │   │ ├── ghrepos@2.0.0 </tspan>
<tspan x="10" y="3274">  │ │   │ ├─┬ ghutils@3.2.1 </tspan>
<tspan x="10" y="3290">  │ │   │ │ └─┬ jsonist@1.3.0 </tspan>
<tspan x="10" y="3306">  │ │   │ │   ├─┬ bl@1.0.3 </tspan>
<tspan x="10" y="3322">  │ │   │ │   │ └─┬ readable-stream@2.0.6 </tspan>
<tspan x="10" y="3338">  │ │   │ │   │   └── string_decoder@0.10.31 </tspan>
<tspan x="10" y="3354">  │ │   │ │   └─┬ hyperquest@1.2.0 </tspan>
<tspan x="10" y="3370">  │ │   │ │     └─┬ through2@0.6.5 </tspan>
<tspan x="10" y="3386">  │ │   │ │       └─┬ readable-stream@1.0.34 </tspan>
<tspan x="10" y="3402">  │ │   │ │         ├── isarray@0.0.1 </tspan>
<tspan x="10" y="3418">  │ │   │ │         └── string_decoder@0.10.31 </tspan>
<tspan x="10" y="3434">  │ │   │ ├── simple-mime@0.1.0 </tspan>
<tspan x="10" y="3450">  │ │   │ └── url-template@2.0.8 </tspan>
<tspan x="10" y="3466">  │ │   ├── github-from-package@0.0.0 </tspan>
<tspan x="10" y="3482">  │ │   ├─┬ node-gyp@3.6.0 </tspan>
<tspan x="10" y="3498">  │ │   │ ├── fstream@1.0.11 </tspan>
<tspan x="10" y="3514">  │ │   │ ├─┬ nopt@3.0.6 </tspan>
<tspan x="10" y="3530">  │ │   │ │ └── abbrev@1.1.0 </tspan>
<tspan x="10" y="3546">  │ │   │ ├─┬ osenv@0.1.4 </tspan>
<tspan x="10" y="3562">  │ │   │ │ └── os-tmpdir@1.0.2 </tspan>
<tspan x="10" y="3578">  │ │   │ ├─┬ request@2.81.0 </tspan>
<tspan x="10" y="3594">  │ │   │ │ ├── aws-sign2@0.6.0 </tspan>
<tspan x="10" y="3610">  │ │   │ │ ├── aws4@1.6.0 </tspan>
<tspan x="10" y="3626">  │ │   │ │ ├── caseless@0.12.0 </tspan>
<tspan x="10" y="3642">  │ │   │ │ ├─┬ combined-stream@1.0.5 </tspan>
<tspan x="10" y="3658">  │ │   │ │ │ └── delayed-stream@1.0.0 </tspan>
<tspan x="10" y="3674">  │ │   │ │ ├── forever-agent@0.6.1 </tspan>
<tspan x="10" y="3690">  │ │   │ │ ├─┬ form-data@2.1.4 </tspan>
<tspan x="10" y="3706">  │ │   │ │ │ └── asynckit@0.4.0 </tspan>
<tspan x="10" y="3722">  │ │   │ │ ├─┬ har-validator@4.2.1 </tspan>
<tspan x="10" y="3738">  │ │   │ │ │ ├─┬ ajv@4.11.7 </tspan>
<tspan x="10" y="3754">  │ │   │ │ │ │ └── co@4.6.0 </tspan>
<tspan x="10" y="3770">  │ │   │ │ │ └── har-schema@1.0.5 </tspan>
<tspan x="10" y="3786">  │ │   │ │ ├─┬ hawk@3.1.3 </tspan>
<tspan x="10" y="3802">  │ │   │ │ │ ├── boom@2.10.1 </tspan>
<tspan x="10" y="3818">  │ │   │ │ │ ├── cryptiles@2.0.5 </tspan>
<tspan x="10" y="3834">  │ │   │ │ │ ├── hoek@2.16.3 </tspan>
<tspan x="10" y="3850">  │ │   │ │ │ └── sntp@1.0.9 </tspan>
<tspan x="10" y="3866">  │ │   │ │ ├─┬ http-signature@1.1.1 </tspan>
<tspan x="10" y="3882">  │ │   │ │ │ ├── assert-plus@0.2.0 </tspan>
<tspan x="10" y="3898">  │ │   │ │ │ ├─┬ jsprim@1.4.0 </tspan>
<tspan x="10" y="3914">  │ │   │ │ │ │ ├── assert-plus@1.0.0 </tspan>
<tspan x="10" y="3930">  │ │   │ │ │ │ ├── extsprintf@1.0.2 </tspan>
<tspan x="10" y="3946">  │ │   │ │ │ │ ├── json-schema@0.2.3 </tspan>
<tspan x="10" y="3962">  │ │   │ │ │ │ └── verror@1.3.6 </tspan>
<tspan x="10" y="3978">  │ │   │ │ │ └─┬ sshpk@1.13.0 </tspan>
<tspan x="10" y="3994">  │ │   │ │ │   ├── asn1@0.2.3 </tspan>
<tspan x="10" y="4010">  │ │   │ │ │   ├── assert-plus@1.0.0 </tspan>
<tspan x="10" y="4026">  │ │   │ │ │   ├── bcrypt-pbkdf@1.0.1 </tspan>
<tspan x="10" y="4042">  │ │   │ │ │   ├─┬ dashdash@1.14.1 </tspan>
<tspan x="10" y="4058">  │ │   │ │ │   │ └── assert-plus@1.0.0 </tspan>
<tspan x="10" y="4074">  │ │   │ │ │   ├── ecc-jsbn@0.1.1 </tspan>
<tspan x="10" y="4090">  │ │   │ │ │   ├─┬ getpass@0.1.6 </tspan>
<tspan x="10" y="4106">  │ │   │ │ │   │ └── assert-plus@1.0.0 </tspan>
<tspan x="10" y="4122">  │ │   │ │ │   ├── jodid25519@1.0.2 </tspan>
<tspan x="10" y="4138">  │ │   │ │ │   ├── jsbn@0.1.1 </tspan>
<tspan x="10" y="4154">  │ │   │ │ │   └── tweetnacl@0.14.5 </tspan>
<tspan x="10" y="4170">  │ │   │ │ ├── is-typedarray@1.0.0 </tspan>
<tspan x="10" y="4186">  │ │   │ │ ├── isstream@0.1.2 </tspan>
<tspan x="10" y="4202">  │ │   │ │ ├── json-stringify-safe@5.0.1 </tspan>
<tspan x="10" y="4218">  │ │   │ │ ├─┬ mime-types@2.1.15 </tspan>
<tspan x="10" y="4234">  │ │   │ │ │ └── mime-db@1.27.0 </tspan>
<tspan x="10" y="4250">  │ │   │ │ ├── oauth-sign@0.8.2 </tspan>
<tspan x="10" y="4266">  │ │   │ │ ├── performance-now@0.2.0 </tspan>
<tspan x="10" y="4282">  │ │   │ │ ├── qs@6.4.0 </tspan>
<tspan x="10" y="4298">  │ │   │ │ ├── safe-buffer@5.0.1 </tspan>
<tspan x="10" y="4314">  │ │   │ │ ├── stringstream@0.0.5 </tspan>
<tspan x="10" y="4330">  │ │   │ │ ├─┬ tough-cookie@2.3.2 </tspan>
<tspan x="10" y="4346">  │ │   │ │ │ └── punycode@1.4.1 </tspan>
<tspan x="10" y="4362">  │ │   │ │ ├── tunnel-agent@0.6.0 </tspan>
<tspan x="10" y="4378">  │ │   │ │ └── uuid@3.0.1 </tspan>
<tspan x="10" y="4394">  │ │   │ ├─┬ tar@2.2.1 </tspan>
<tspan x="10" y="4410">  │ │   │ │ └── block-stream@0.0.9 </tspan>
<tspan x="10" y="4426">  │ │   │ └─┬ which@1.2.14 </tspan>
<tspan x="10" y="4442">  │ │   │   └── isexe@2.0.0 </tspan>
<tspan x="10" y="4458">  │ │   ├─┬ node-ninja@1.0.2 </tspan>
<tspan x="10" y="4474">  │ │   │ └─┬ path-array@1.0.1 </tspan>
<tspan x="10" y="4490">  │ │   │   └─┬ array-index@1.0.0 </tspan>
<tspan x="10" y="4506">  │ │   │     └─┬ es6-symbol@3.1.1 </tspan>
<tspan x="10" y="4522">  │ │   │       ├── d@1.0.0 </tspan>
<tspan x="10" y="4538">  │ │   │       └─┬ es5-ext@0.10.15 </tspan>
<tspan x="10" y="4554">  │ │   │         └── es6-iterator@2.0.1 </tspan>
<tspan x="10" y="4570">  │ │   ├── noop-logger@0.1.1 </tspan>
<tspan x="10" y="4586">  │ │   ├─┬ npmlog@2.0.4 </tspan>
<tspan x="10" y="4602">  │ │   │ ├── ansi@0.3.1 </tspan>
<tspan x="10" y="4618">  │ │   │ ├─┬ are-we-there-yet@1.1.4 </tspan>
<tspan x="10" y="4634">  │ │   │ │ └── delegates@1.0.0 </tspan>
<tspan x="10" y="4650">  │ │   │ └─┬ gauge@1.2.7 </tspan>
<tspan x="10" y="4666">  │ │   │   ├── has-unicode@2.0.1 </tspan>
<tspan x="10" y="4682">  │ │   │   ├── lodash.pad@4.5.1 </tspan>
<tspan x="10" y="4698">  │ │   │   ├── lodash.padend@4.6.1 </tspan>
<tspan x="10" y="4714">  │ │   │   └── lodash.padstart@4.6.1 </tspan>
<tspan x="10" y="4730">  │ │   ├── os-homedir@1.0.2 </tspan>
<tspan x="10" y="4746">  │ │   ├─┬ rc@1.2.1 </tspan>
<tspan x="10" y="4762">  │ │   │ ├── deep-extend@0.4.1 </tspan>
<tspan x="10" y="4778">  │ │   │ ├── ini@1.3.4 </tspan>
<tspan x="10" y="4794">  │ │   │ └── strip-json-comments@2.0.1 </tspan>
<tspan x="10" y="4810">  │ │   ├─┬ simple-get@1.4.3 </tspan>
<tspan x="10" y="4826">  │ │   │ └── unzip-response@1.0.2 </tspan>
<tspan x="10" y="4842">  │ │   ├─┬ tar-fs@1.15.2 </tspan>
<tspan x="10" y="4858">  │ │   │ └── chownr@1.0.1 </tspan>
<tspan x="10" y="4874">  │ │   └─┬ tar-stream@1.5.2 </tspan>
<tspan x="10" y="4890">  │ │     └── bl@1.2.0 </tspan>
<tspan x="10" y="4906">  │ ├─┬ levelup@1.3.5 </tspan>
<tspan x="10" y="4922">  │ │ ├─┬ deferred-leveldown@1.2.1 </tspan>
<tspan x="10" y="4938">  │ │ │ └── abstract-leveldown@2.4.1 </tspan>
<tspan x="10" y="4954">  │ │ ├── level-codec@6.1.0 </tspan>
<tspan x="10" y="4970">  │ │ ├── level-errors@1.0.4 </tspan>
<tspan x="10" y="4986">  │ │ ├─┬ level-iterator-stream@1.3.1 </tspan>
<tspan x="10" y="5002">  │ │ │ └─┬ readable-stream@1.1.14 </tspan>
<tspan x="10" y="5018">  │ │ │   ├── isarray@0.0.1 </tspan>
<tspan x="10" y="5034">  │ │ │   └── string_decoder@0.10.31 </tspan>
<tspan x="10" y="5050">  │ │ ├── prr@1.0.1 </tspan>
<tspan x="10" y="5066">  │ │ └── semver@5.1.1 </tspan>
<tspan x="10" y="5082">  │ ├─┬ memdown@1.1.2 </tspan>
<tspan x="10" y="5098">  │ │ ├── abstract-leveldown@2.6.1 </tspan>
<tspan x="10" y="5114">  │ │ ├── functional-red-black-tree@1.0.1 </tspan>
<tspan x="10" y="5130">  │ │ └── ltgt@1.0.2 </tspan>
<tspan x="10" y="5146">  │ ├─┬ minimatch@3.0.3 </tspan>
<tspan x="10" y="5162">  │ │ └─┬ brace-expansion@1.1.7 </tspan>
<tspan x="10" y="5178">  │ │   ├── balanced-match@0.4.2 </tspan>
<tspan x="10" y="5194">  │ │   └── concat-map@0.0.1 </tspan>
<tspan x="10" y="5210">  │ ├── moment@2.8.4 </tspan>
<tspan x="10" y="5226">  │ ├─┬ mongodb@2.1.21 </tspan>
<tspan x="10" y="5242">  │ │ ├── es6-promise@3.0.2 </tspan>
<tspan x="10" y="5258">  │ │ ├─┬ mongodb-core@1.3.21 </tspan>
<tspan x="10" y="5274">  │ │ │ └── bson@0.4.23 </tspan>
<tspan x="10" y="5290">  │ │ └─┬ readable-stream@1.0.31 </tspan>
<tspan x="10" y="5306">  │ │   ├── isarray@0.0.1 </tspan>
<tspan x="10" y="5322">  │ │   └── string_decoder@0.10.31 </tspan>
<tspan x="10" y="5338">  │ ├── moving-average@0.0.5 </tspan>
<tspan x="10" y="5354">  │ ├─┬ mqtt-connection@2.1.1 </tspan>
<tspan x="10" y="5370">  │ │ ├─┬ reduplexer@1.1.0 </tspan>
<tspan x="10" y="5386">  │ │ │ └─┬ readable-stream@1.0.34 </tspan>
<tspan x="10" y="5402">  │ │ │   ├── isarray@0.0.1 </tspan>
<tspan x="10" y="5418">  │ │ │   └── string_decoder@0.10.31 </tspan>
<tspan x="10" y="5434">  │ │ └─┬ through2@0.6.5 </tspan>
<tspan x="10" y="5450">  │ │   └─┬ readable-stream@1.0.34 </tspan>
<tspan x="10" y="5466">  │ │     ├── isarray@0.0.1 </tspan>
<tspan x="10" y="5482">  │ │     └── string_decoder@0.10.31 </tspan>
<tspan x="10" y="5498">  │ ├─┬ msgpack5@3.4.1 </tspan>
<tspan x="10" y="5514">  │ │ └── bl@1.2.0 </tspan>
<tspan x="10" y="5530">  │ ├─┬ pbkdf2-password@1.2.1 </tspan>
<tspan x="10" y="5546">  │ │ └── fastfall@1.5.1 </tspan>
<tspan x="10" y="5562">  │ ├── redis@2.4.2 </tspan>
<tspan x="10" y="5578">  │ ├── retimer@1.0.1 </tspan>
<tspan x="10" y="5594">  │ ├── shortid@2.2.8 </tspan>
<tspan x="10" y="5610">  │ ├── uuid@2.0.3 </tspan>
<tspan x="10" y="5626">  │ └─┬ websocket-stream@2.0.2 </tspan>
<tspan x="10" y="5642">  │   ├─┬ duplexify@3.5.0 </tspan>
<tspan x="10" y="5658">  │   │ ├─┬ end-of-stream@1.0.0 </tspan>
<tspan x="10" y="5674">  │   │ │ └── once@1.3.3 </tspan>
<tspan x="10" y="5690">  │   │ └── stream-shift@1.0.0 </tspan>
<tspan x="10" y="5706">  │   ├─┬ through2@0.6.5 </tspan>
<tspan x="10" y="5722">  │   │ └── readable-stream@1.0.34 </tspan>
<tspan x="10" y="5738">  │   └─┬ ws@0.8.1 </tspan>
<tspan x="10" y="5754">  │     ├── bufferutil@1.2.1 </tspan>
<tspan x="10" y="5770">  │     ├── options@0.0.6 </tspan>
<tspan x="10" y="5786">  │     ├── ultron@1.0.2 </tspan>
<tspan x="10" y="5802">  │     └─┬ utf-8-validate@1.2.2 </tspan>
<tspan x="10" y="5818">  │       └── nan@2.4.0 </tspan>
<tspan x="10" y="5834">  ├─┬ st@1.1.0 </tspan>
<tspan x="10" y="5850">  │ ├─┬ async-cache@1.0.0 </tspan>
<tspan x="10" y="5866">  │ │ └── lru-cache@2.3.1 </tspan>
<tspan x="10" y="5882">  │ ├─┬ bl@1.0.3 </tspan>
<tspan x="10" y="5898">  │ │ └─┬ readable-stream@2.0.6 </tspan>
<tspan x="10" y="5914">  │ │   └── string_decoder@0.10.31 </tspan>
<tspan x="10" y="5930">  │ ├── fd@0.0.2 </tspan>
<tspan x="10" y="5946">  │ ├── graceful-fs@4.1.11 </tspan>
<tspan x="10" y="5962">  │ ├── mime@1.3.4 </tspan>
<tspan x="10" y="5978">  │ └── negotiator@0.6.1 </tspan>
<tspan x="10" y="5994">  └── xtend@4.0.1</tspan>
</text>
</svg>
